{"title":"The Informers-AC3-5,1-DVDRip[Eng]2009","uid":5056141,"size":1396329275,"categoryP":"video","categoryS":"movies","magnet":"?xt=urn:btih:029f6e8b884b0c2e4a35ea5a3220826e562064fb&amp;dn=The+Informers-AC3-5%2C1-DVDRip%5BEng%5D2009&amp;tr=udp%3A%2F%2Ftracker.openbittorrent.com%3A80&amp;tr=udp%3A%2F%2Fopen.demonii.com%3A1337&amp;tr=udp%3A%2F%2Ftracker.coppersurfer.tk%3A6969&amp;tr=udp%3A%2F%2Fexodus.desync.com%3A6969","seeders":1,"leechers":0,"uploader":"FatFreddy31","files":-1,"time":1250428925,"description":" &lt;a href=&quot;http://www.imdb.com/title/tt0865554/&quot; rel=&quot;nofollow&quot; target=&quot;_NEW&quot;&gt;http://www.imdb.com/title/tt0865554/&lt;/a&gt;\n &lt;a href=&quot;\nhttp://www.theinformers.com/&quot; rel=&quot;nofollow&quot; target=&quot;_NEW&quot;&gt;\nhttp://www.theinformers.com/&lt;/a&gt;\n\nUser Rating:7.2/10 - 1,301 votes\n\nCrime,Drama,Thriller\n\nDirector:Gregor Jordan\n\nCast:Billy Bob Thornton/Kim Basinger/Mickey Rourke/Winona Ryder, and others.\n\nPlot:\nA multi-strand narrative set in early 1980's Los Angeles, centered on an array of characters who represent both the top of the heap (a Hollywood dream merchant, a dissolute rock star, an aging newscaster) and the bottom (a voyeuristic doorman, an amoral ex-con). Connecting the intertwining strands are a group of beautiful, blonde young men and women who sleep all day and party all night, doing drugs -- and one another --with abandon, never realizing that they are dancing on the edge of a volcano.......\n\nInfo:\n\nGeneral\nComplete name                    : The Informers-AC3-5,1-DVDRip[Eng]2009.avi\nFormat                           : AVI\nFormat/Info                      : Audio Video Interleave\nFile size                        : 1.30 GiB\nDuration                         : 1h 37mn\nOverall bit rate                 : 1 904 Kbps\nWriting application              : VirtualDubMod 1.5.4.1 (build 2178/release)\nWriting library                  : VirtualDubMod build 2178/release\n\nVideo\nFormat                           : MPEG-4 Visual\nFormat profile                   : Simple@L3\nFormat settings, BVOP            : No\nFormat settings, QPel            : No\nFormat settings, GMC             : No warppoints\nFormat settings, Matrix          : Default\nCodec ID                         : XVID\nCodec ID/Hint                    : XviD\nDuration                         : 1h 37mn\nBit rate                         : 1 446 Kbps\nWidth                            : 704 pixels\nHeight                           : 304 pixels\nDisplay aspect ratio             : 2.35\nFrame rate                       : 23.976 fps\nResolution                       : 24 bits\nColorimetry                      : 4:2:0\nScan type                        : Progressive\nBits/(Pixel*Frame)               : 0.282\nStream size                      : 1 012 MiB (76%)\nWriting library                  : XviD 1.1.2 (UTC 2006-11-01)\n\nAudio\nFormat                           : AC-3\nFormat/Info                      : Audio Coding 3\nCodec ID                         : 2000\nDuration                         : 1h 37mn\nBit rate mode                    : Constant\nBit rate                         : 448 Kbps\nChannel(s)                       : 6 channels\nChannel positions                : Front: L C R, Surround: L R, LFE\nSampling rate                    : 48.0 KHz\nStream size                      : 313 MiB (24%)\nAlignment                        : Split accross interleaves\nInterleave, duration             : 42 ms (1.00 video frame)\nInterleave, preload duration     : 500 ms\n\nEnjoy...","torrent":{"xt":"urn:btih:029f6e8b884b0c2e4a35ea5a3220826e562064fb","amp;dn":"The+Informers-AC3-5%2C1-DVDRip%5BEng%5D2009","amp;tr":["udp%3A%2F%2Ftracker.openbittorrent.com%3A80","udp%3A%2F%2Fopen.demonii.com%3A1337","udp%3A%2F%2Ftracker.coppersurfer.tk%3A6969","udp%3A%2F%2Fexodus.desync.com%3A6969"],"infoHash":"029f6e8b884b0c2e4a35ea5a3220826e562064fb","infoHashBuffer":{"type":"Buffer","data":[2,159,110,139,136,75,12,46,74,53,234,90,50,32,130,110,86,32,100,251]},"announce":[],"urlList":[]}}